<svg id="Layer_1" data-name="Layer 1" xmlns="http://www.w3.org/2000/svg" viewBox="0 0 720.16 498.39"><path d="M685,526" transform="translate(-684.97 -703.72)"/><path d="M934.76,703.72H1076a21,21,0,0,1-1.32,1.64q-40.57,40.47-81.16,80.93L878.43,901.06c-.56.55-1.1,1.13-1.95,2h525.89c.92,0,1.84,0,2.76-.06v99.83c-.66,0-1.31-.05-2-.05H877l-.45.7a14.5,14.5,0,0,1,2,1.45q98,97.62,195.88,195.26c.58.59,1.07,1.28,1.6,1.92H934.76c-.7-.77-1.36-1.58-2.1-2.31q-123.1-122.71-246.22-245.42c-.46-.46-1-.85-1.47-1.27v-.39c.49-.43,1-.82,1.47-1.28L933.08,705.61C933.67,705,934.2,704.35,934.76,703.72Z" transform="translate(-684.97 -703.72)"/></svg>